G04 #@! TF.GenerationSoftware,KiCad,Pcbnew,(5.1.4)-1*
G04 #@! TF.CreationDate,2019-09-21T23:03:51-04:00*
G04 #@! TF.ProjectId,GameBoyCartridgeBreakout,47616d65-426f-4794-9361-727472696467,rev?*
G04 #@! TF.SameCoordinates,Original*
G04 #@! TF.FileFunction,Legend,Top*
G04 #@! TF.FilePolarity,Positive*
%FSLAX46Y46*%
G04 Gerber Fmt 4.6, Leading zero omitted, Abs format (unit mm)*
G04 Created by KiCad (PCBNEW (5.1.4)-1) date 2019-09-21 23:03:51*
%MOMM*%
%LPD*%
G04 APERTURE LIST*
%ADD10C,0.300000*%
%ADD11C,0.200000*%
%ADD12C,0.120000*%
G04 APERTURE END LIST*
D10*
X129678571Y-57150000D02*
X129535714Y-57078571D01*
X129321428Y-57078571D01*
X129107142Y-57150000D01*
X128964285Y-57292857D01*
X128892857Y-57435714D01*
X128821428Y-57721428D01*
X128821428Y-57935714D01*
X128892857Y-58221428D01*
X128964285Y-58364285D01*
X129107142Y-58507142D01*
X129321428Y-58578571D01*
X129464285Y-58578571D01*
X129678571Y-58507142D01*
X129750000Y-58435714D01*
X129750000Y-57935714D01*
X129464285Y-57935714D01*
X130321428Y-58150000D02*
X131035714Y-58150000D01*
X130178571Y-58578571D02*
X130678571Y-57078571D01*
X131178571Y-58578571D01*
X131678571Y-58578571D02*
X131678571Y-57078571D01*
X132178571Y-58150000D01*
X132678571Y-57078571D01*
X132678571Y-58578571D01*
X133392857Y-57792857D02*
X133892857Y-57792857D01*
X134107142Y-58578571D02*
X133392857Y-58578571D01*
X133392857Y-57078571D01*
X134107142Y-57078571D01*
X136392857Y-57792857D02*
X136607142Y-57864285D01*
X136678571Y-57935714D01*
X136750000Y-58078571D01*
X136750000Y-58292857D01*
X136678571Y-58435714D01*
X136607142Y-58507142D01*
X136464285Y-58578571D01*
X135892857Y-58578571D01*
X135892857Y-57078571D01*
X136392857Y-57078571D01*
X136535714Y-57150000D01*
X136607142Y-57221428D01*
X136678571Y-57364285D01*
X136678571Y-57507142D01*
X136607142Y-57650000D01*
X136535714Y-57721428D01*
X136392857Y-57792857D01*
X135892857Y-57792857D01*
X137678571Y-57078571D02*
X137964285Y-57078571D01*
X138107142Y-57150000D01*
X138250000Y-57292857D01*
X138321428Y-57578571D01*
X138321428Y-58078571D01*
X138250000Y-58364285D01*
X138107142Y-58507142D01*
X137964285Y-58578571D01*
X137678571Y-58578571D01*
X137535714Y-58507142D01*
X137392857Y-58364285D01*
X137321428Y-58078571D01*
X137321428Y-57578571D01*
X137392857Y-57292857D01*
X137535714Y-57150000D01*
X137678571Y-57078571D01*
X139250000Y-57864285D02*
X139250000Y-58578571D01*
X138750000Y-57078571D02*
X139250000Y-57864285D01*
X139750000Y-57078571D01*
X142250000Y-58435714D02*
X142178571Y-58507142D01*
X141964285Y-58578571D01*
X141821428Y-58578571D01*
X141607142Y-58507142D01*
X141464285Y-58364285D01*
X141392857Y-58221428D01*
X141321428Y-57935714D01*
X141321428Y-57721428D01*
X141392857Y-57435714D01*
X141464285Y-57292857D01*
X141607142Y-57150000D01*
X141821428Y-57078571D01*
X141964285Y-57078571D01*
X142178571Y-57150000D01*
X142250000Y-57221428D01*
X142821428Y-58150000D02*
X143535714Y-58150000D01*
X142678571Y-58578571D02*
X143178571Y-57078571D01*
X143678571Y-58578571D01*
X145035714Y-58578571D02*
X144535714Y-57864285D01*
X144178571Y-58578571D02*
X144178571Y-57078571D01*
X144750000Y-57078571D01*
X144892857Y-57150000D01*
X144964285Y-57221428D01*
X145035714Y-57364285D01*
X145035714Y-57578571D01*
X144964285Y-57721428D01*
X144892857Y-57792857D01*
X144750000Y-57864285D01*
X144178571Y-57864285D01*
X145464285Y-57078571D02*
X146321428Y-57078571D01*
X145892857Y-58578571D02*
X145892857Y-57078571D01*
X147678571Y-58578571D02*
X147178571Y-57864285D01*
X146821428Y-58578571D02*
X146821428Y-57078571D01*
X147392857Y-57078571D01*
X147535714Y-57150000D01*
X147607142Y-57221428D01*
X147678571Y-57364285D01*
X147678571Y-57578571D01*
X147607142Y-57721428D01*
X147535714Y-57792857D01*
X147392857Y-57864285D01*
X146821428Y-57864285D01*
X148321428Y-58578571D02*
X148321428Y-57078571D01*
X149035714Y-58578571D02*
X149035714Y-57078571D01*
X149392857Y-57078571D01*
X149607142Y-57150000D01*
X149750000Y-57292857D01*
X149821428Y-57435714D01*
X149892857Y-57721428D01*
X149892857Y-57935714D01*
X149821428Y-58221428D01*
X149750000Y-58364285D01*
X149607142Y-58507142D01*
X149392857Y-58578571D01*
X149035714Y-58578571D01*
X151321428Y-57150000D02*
X151178571Y-57078571D01*
X150964285Y-57078571D01*
X150750000Y-57150000D01*
X150607142Y-57292857D01*
X150535714Y-57435714D01*
X150464285Y-57721428D01*
X150464285Y-57935714D01*
X150535714Y-58221428D01*
X150607142Y-58364285D01*
X150750000Y-58507142D01*
X150964285Y-58578571D01*
X151107142Y-58578571D01*
X151321428Y-58507142D01*
X151392857Y-58435714D01*
X151392857Y-57935714D01*
X151107142Y-57935714D01*
X152035714Y-57792857D02*
X152535714Y-57792857D01*
X152750000Y-58578571D02*
X152035714Y-58578571D01*
X152035714Y-57078571D01*
X152750000Y-57078571D01*
X155035714Y-57792857D02*
X155250000Y-57864285D01*
X155321428Y-57935714D01*
X155392857Y-58078571D01*
X155392857Y-58292857D01*
X155321428Y-58435714D01*
X155250000Y-58507142D01*
X155107142Y-58578571D01*
X154535714Y-58578571D01*
X154535714Y-57078571D01*
X155035714Y-57078571D01*
X155178571Y-57150000D01*
X155250000Y-57221428D01*
X155321428Y-57364285D01*
X155321428Y-57507142D01*
X155250000Y-57650000D01*
X155178571Y-57721428D01*
X155035714Y-57792857D01*
X154535714Y-57792857D01*
X156892857Y-58578571D02*
X156392857Y-57864285D01*
X156035714Y-58578571D02*
X156035714Y-57078571D01*
X156607142Y-57078571D01*
X156750000Y-57150000D01*
X156821428Y-57221428D01*
X156892857Y-57364285D01*
X156892857Y-57578571D01*
X156821428Y-57721428D01*
X156750000Y-57792857D01*
X156607142Y-57864285D01*
X156035714Y-57864285D01*
X157535714Y-57792857D02*
X158035714Y-57792857D01*
X158250000Y-58578571D02*
X157535714Y-58578571D01*
X157535714Y-57078571D01*
X158250000Y-57078571D01*
X158821428Y-58150000D02*
X159535714Y-58150000D01*
X158678571Y-58578571D02*
X159178571Y-57078571D01*
X159678571Y-58578571D01*
X160178571Y-58578571D02*
X160178571Y-57078571D01*
X161035714Y-58578571D02*
X160392857Y-57721428D01*
X161035714Y-57078571D02*
X160178571Y-57935714D01*
X161964285Y-57078571D02*
X162250000Y-57078571D01*
X162392857Y-57150000D01*
X162535714Y-57292857D01*
X162607142Y-57578571D01*
X162607142Y-58078571D01*
X162535714Y-58364285D01*
X162392857Y-58507142D01*
X162250000Y-58578571D01*
X161964285Y-58578571D01*
X161821428Y-58507142D01*
X161678571Y-58364285D01*
X161607142Y-58078571D01*
X161607142Y-57578571D01*
X161678571Y-57292857D01*
X161821428Y-57150000D01*
X161964285Y-57078571D01*
X163250000Y-57078571D02*
X163250000Y-58292857D01*
X163321428Y-58435714D01*
X163392857Y-58507142D01*
X163535714Y-58578571D01*
X163821428Y-58578571D01*
X163964285Y-58507142D01*
X164035714Y-58435714D01*
X164107142Y-58292857D01*
X164107142Y-57078571D01*
X164607142Y-57078571D02*
X165464285Y-57078571D01*
X165035714Y-58578571D02*
X165035714Y-57078571D01*
X166964285Y-57578571D02*
X167321428Y-58578571D01*
X167678571Y-57578571D01*
X169035714Y-58578571D02*
X168178571Y-58578571D01*
X168607142Y-58578571D02*
X168607142Y-57078571D01*
X168464285Y-57292857D01*
X168321428Y-57435714D01*
X168178571Y-57507142D01*
X169678571Y-58435714D02*
X169750000Y-58507142D01*
X169678571Y-58578571D01*
X169607142Y-58507142D01*
X169678571Y-58435714D01*
X169678571Y-58578571D01*
X170678571Y-57078571D02*
X170821428Y-57078571D01*
X170964285Y-57150000D01*
X171035714Y-57221428D01*
X171107142Y-57364285D01*
X171178571Y-57650000D01*
X171178571Y-58007142D01*
X171107142Y-58292857D01*
X171035714Y-58435714D01*
X170964285Y-58507142D01*
X170821428Y-58578571D01*
X170678571Y-58578571D01*
X170535714Y-58507142D01*
X170464285Y-58435714D01*
X170392857Y-58292857D01*
X170321428Y-58007142D01*
X170321428Y-57650000D01*
X170392857Y-57364285D01*
X170464285Y-57221428D01*
X170535714Y-57150000D01*
X170678571Y-57078571D01*
D11*
X151000000Y-62750000D02*
G75*
G03X151000000Y-62750000I-1000000J0D01*
G01*
X153500000Y-88250000D02*
G75*
G03X153500000Y-88250000I-3500000J0D01*
G01*
X171500000Y-45750000D02*
X175500000Y-45750000D01*
X171500000Y-42750000D02*
X171500000Y-45750000D01*
X124500000Y-42750000D02*
X171500000Y-42750000D01*
X175500000Y-94750000D02*
X175500000Y-45750000D01*
X124500000Y-94750000D02*
X124500000Y-42750000D01*
X175000000Y-94750000D02*
X175500000Y-94750000D01*
X175000000Y-103750000D02*
X175000000Y-94750000D01*
X125000000Y-103750000D02*
X175000000Y-103750000D01*
X124500000Y-94750000D02*
X125000000Y-94750000D01*
X125000000Y-103750000D02*
X125000000Y-94750000D01*
D12*
X125000000Y-96750000D02*
X125000000Y-103750000D01*
X175000000Y-103750000D02*
X175000000Y-96750000D01*
X125000000Y-103750000D02*
X175000000Y-103750000D01*
X125000000Y-96750000D02*
X175000000Y-96750000D01*
X170380000Y-49870000D02*
X170380000Y-44670000D01*
X132220000Y-49870000D02*
X170380000Y-49870000D01*
X129620000Y-44670000D02*
X170380000Y-44670000D01*
X132220000Y-49870000D02*
X132220000Y-47270000D01*
X132220000Y-47270000D02*
X129620000Y-47270000D01*
X129620000Y-47270000D02*
X129620000Y-44670000D01*
X130950000Y-49870000D02*
X129620000Y-49870000D01*
X129620000Y-49870000D02*
X129620000Y-48540000D01*
M02*
