G04 #@! TF.GenerationSoftware,KiCad,Pcbnew,(5.1.4)-1*
G04 #@! TF.CreationDate,2019-09-21T23:03:51-04:00*
G04 #@! TF.ProjectId,GameBoyCartridgeBreakout,47616d65-426f-4794-9361-727472696467,rev?*
G04 #@! TF.SameCoordinates,Original*
G04 #@! TF.FileFunction,Copper,L2,Bot*
G04 #@! TF.FilePolarity,Positive*
%FSLAX46Y46*%
G04 Gerber Fmt 4.6, Leading zero omitted, Abs format (unit mm)*
G04 Created by KiCad (PCBNEW (5.1.4)-1) date 2019-09-21 23:03:51*
%MOMM*%
%LPD*%
G04 APERTURE LIST*
%ADD10R,1.700000X1.700000*%
%ADD11O,1.700000X1.700000*%
%ADD12C,0.800000*%
%ADD13C,0.250000*%
G04 APERTURE END LIST*
D10*
X130950000Y-48540000D03*
D11*
X130950000Y-46000000D03*
X133490000Y-48540000D03*
X133490000Y-46000000D03*
X136030000Y-48540000D03*
X136030000Y-46000000D03*
X138570000Y-48540000D03*
X138570000Y-46000000D03*
X141110000Y-48540000D03*
X141110000Y-46000000D03*
X143650000Y-48540000D03*
X143650000Y-46000000D03*
X146190000Y-48540000D03*
X146190000Y-46000000D03*
X148730000Y-48540000D03*
X148730000Y-46000000D03*
X151270000Y-48540000D03*
X151270000Y-46000000D03*
X153810000Y-48540000D03*
X153810000Y-46000000D03*
X156350000Y-48540000D03*
X156350000Y-46000000D03*
X158890000Y-48540000D03*
X158890000Y-46000000D03*
X161430000Y-48540000D03*
X161430000Y-46000000D03*
X163970000Y-48540000D03*
X163970000Y-46000000D03*
X166510000Y-48540000D03*
X166510000Y-46000000D03*
X169050000Y-48540000D03*
X169050000Y-46000000D03*
D12*
X127500000Y-51100000D03*
X129750000Y-94950000D03*
X132725000Y-94950000D03*
X135750000Y-94750000D03*
X138750000Y-94750000D03*
X141750000Y-94750000D03*
X144750000Y-94750000D03*
X147750000Y-94750000D03*
X149250000Y-96250000D03*
X152350000Y-94875000D03*
X155250000Y-95000000D03*
X158250000Y-95000000D03*
X161250000Y-95000000D03*
X164250000Y-95000000D03*
X167250000Y-95000000D03*
X170250000Y-95000000D03*
D13*
X130060000Y-48540000D02*
X130950000Y-48540000D01*
X127500000Y-51100000D02*
X130060000Y-48540000D01*
X129750000Y-52280000D02*
X129750000Y-94950000D01*
X133490000Y-48540000D02*
X129750000Y-52280000D01*
X135180001Y-49389999D02*
X135180001Y-51244999D01*
X136030000Y-48540000D02*
X135180001Y-49389999D01*
X132725000Y-53700000D02*
X132725000Y-94950000D01*
X135180001Y-51244999D02*
X132725000Y-53700000D01*
X138570000Y-49742081D02*
X135750000Y-52562081D01*
X138570000Y-48540000D02*
X138570000Y-49742081D01*
X135750000Y-52562081D02*
X135750000Y-94750000D01*
X141110000Y-48540000D02*
X141110000Y-51890000D01*
X141110000Y-51890000D02*
X138750000Y-54250000D01*
X138750000Y-54250000D02*
X138750000Y-94750000D01*
X143650000Y-48540000D02*
X143650000Y-53350000D01*
X143650000Y-53350000D02*
X141750000Y-55250000D01*
X141750000Y-55250000D02*
X141750000Y-94750000D01*
X146190000Y-49742081D02*
X144750000Y-51182081D01*
X146190000Y-48540000D02*
X146190000Y-49742081D01*
X144750000Y-51182081D02*
X144750000Y-56750000D01*
X144750000Y-56750000D02*
X144750000Y-94750000D01*
X147350001Y-94350001D02*
X147750000Y-94750000D01*
X146146993Y-93146993D02*
X147350001Y-94350001D01*
X146146993Y-51123007D02*
X146146993Y-93146993D01*
X148730000Y-48540000D02*
X146146993Y-51123007D01*
X149579999Y-45150001D02*
X148730000Y-46000000D01*
X149905001Y-44824999D02*
X149579999Y-45150001D01*
X169614001Y-44824999D02*
X149905001Y-44824999D01*
X170975001Y-46185999D02*
X169614001Y-44824999D01*
X170975001Y-95348001D02*
X170975001Y-46185999D01*
X170073002Y-96250000D02*
X170975001Y-95348001D01*
X149250000Y-96250000D02*
X170073002Y-96250000D01*
X152749999Y-94475001D02*
X152350000Y-94875000D01*
X153853006Y-93371994D02*
X152749999Y-94475001D01*
X153853006Y-86656643D02*
X153853006Y-93371994D01*
X152634999Y-85438636D02*
X153853006Y-86656643D01*
X152634999Y-47364999D02*
X152634999Y-85438636D01*
X151270000Y-46000000D02*
X152634999Y-47364999D01*
X153810000Y-46800998D02*
X154985001Y-47975999D01*
X153810000Y-46000000D02*
X153810000Y-46800998D01*
X154985001Y-47975999D02*
X154985001Y-94169316D01*
X154985001Y-94169316D02*
X155250000Y-94434315D01*
X155250000Y-94434315D02*
X155250000Y-95000000D01*
X157850001Y-94600001D02*
X158250000Y-95000000D01*
X157525001Y-94275001D02*
X157850001Y-94600001D01*
X157525001Y-47975999D02*
X157525001Y-94275001D01*
X156350000Y-46800998D02*
X157525001Y-47975999D01*
X156350000Y-46000000D02*
X156350000Y-46800998D01*
X160850001Y-94600001D02*
X161250000Y-95000000D01*
X160065001Y-93815001D02*
X160850001Y-94600001D01*
X160065001Y-47175001D02*
X160065001Y-93815001D01*
X158890000Y-46000000D02*
X160065001Y-47175001D01*
X163850001Y-94600001D02*
X164250000Y-95000000D01*
X162794999Y-93544999D02*
X163850001Y-94600001D01*
X162794999Y-47364999D02*
X162794999Y-93544999D01*
X161430000Y-46000000D02*
X162794999Y-47364999D01*
X166850001Y-94600001D02*
X167250000Y-95000000D01*
X165145001Y-92895001D02*
X166850001Y-94600001D01*
X165145001Y-47175001D02*
X165145001Y-92895001D01*
X163970000Y-46000000D02*
X165145001Y-47175001D01*
X169850001Y-94600001D02*
X170250000Y-95000000D01*
X167874999Y-92624999D02*
X169850001Y-94600001D01*
X167874999Y-48165997D02*
X167874999Y-92624999D01*
X166510000Y-46800998D02*
X167874999Y-48165997D01*
X166510000Y-46000000D02*
X166510000Y-46800998D01*
M02*
