G04 #@! TF.GenerationSoftware,KiCad,Pcbnew,(5.1.4)-1*
G04 #@! TF.CreationDate,2019-09-21T23:03:51-04:00*
G04 #@! TF.ProjectId,GameBoyCartridgeBreakout,47616d65-426f-4794-9361-727472696467,rev?*
G04 #@! TF.SameCoordinates,Original*
G04 #@! TF.FileFunction,Legend,Bot*
G04 #@! TF.FilePolarity,Positive*
%FSLAX46Y46*%
G04 Gerber Fmt 4.6, Leading zero omitted, Abs format (unit mm)*
G04 Created by KiCad (PCBNEW (5.1.4)-1) date 2019-09-21 23:03:51*
%MOMM*%
%LPD*%
G04 APERTURE LIST*
%ADD10C,0.100000*%
G04 APERTURE END LIST*
D10*
X131578571Y-43226190D02*
X131578571Y-43583333D01*
X131602380Y-43654761D01*
X131650000Y-43702380D01*
X131721428Y-43726190D01*
X131769047Y-43726190D01*
X131388095Y-43226190D02*
X131269047Y-43726190D01*
X131173809Y-43369047D01*
X131078571Y-43726190D01*
X130959523Y-43226190D01*
X130507142Y-43250000D02*
X130554761Y-43226190D01*
X130626190Y-43226190D01*
X130697619Y-43250000D01*
X130745238Y-43297619D01*
X130769047Y-43345238D01*
X130792857Y-43440476D01*
X130792857Y-43511904D01*
X130769047Y-43607142D01*
X130745238Y-43654761D01*
X130697619Y-43702380D01*
X130626190Y-43726190D01*
X130578571Y-43726190D01*
X130507142Y-43702380D01*
X130483333Y-43678571D01*
X130483333Y-43511904D01*
X130578571Y-43511904D01*
X129911904Y-43273809D02*
X129888095Y-43250000D01*
X129840476Y-43226190D01*
X129721428Y-43226190D01*
X129673809Y-43250000D01*
X129650000Y-43273809D01*
X129626190Y-43321428D01*
X129626190Y-43369047D01*
X129650000Y-43440476D01*
X129935714Y-43726190D01*
X129626190Y-43726190D01*
X129316666Y-43226190D02*
X129269047Y-43226190D01*
X129221428Y-43250000D01*
X129197619Y-43273809D01*
X129173809Y-43321428D01*
X129150000Y-43416666D01*
X129150000Y-43535714D01*
X129173809Y-43630952D01*
X129197619Y-43678571D01*
X129221428Y-43702380D01*
X129269047Y-43726190D01*
X129316666Y-43726190D01*
X129364285Y-43702380D01*
X129388095Y-43678571D01*
X129411904Y-43630952D01*
X129435714Y-43535714D01*
X129435714Y-43416666D01*
X129411904Y-43321428D01*
X129388095Y-43273809D01*
X129364285Y-43250000D01*
X129316666Y-43226190D01*
X128673809Y-43726190D02*
X128959523Y-43726190D01*
X128816666Y-43726190D02*
X128816666Y-43226190D01*
X128864285Y-43297619D01*
X128911904Y-43345238D01*
X128959523Y-43369047D01*
X128435714Y-43726190D02*
X128340476Y-43726190D01*
X128292857Y-43702380D01*
X128269047Y-43678571D01*
X128221428Y-43607142D01*
X128197619Y-43511904D01*
X128197619Y-43321428D01*
X128221428Y-43273809D01*
X128245238Y-43250000D01*
X128292857Y-43226190D01*
X128388095Y-43226190D01*
X128435714Y-43250000D01*
X128459523Y-43273809D01*
X128483333Y-43321428D01*
X128483333Y-43440476D01*
X128459523Y-43488095D01*
X128435714Y-43511904D01*
X128388095Y-43535714D01*
X128292857Y-43535714D01*
X128245238Y-43511904D01*
X128221428Y-43488095D01*
X128197619Y-43440476D01*
X127983333Y-43535714D02*
X127602380Y-43535714D01*
X127269047Y-43226190D02*
X127221428Y-43226190D01*
X127173809Y-43250000D01*
X127150000Y-43273809D01*
X127126190Y-43321428D01*
X127102380Y-43416666D01*
X127102380Y-43535714D01*
X127126190Y-43630952D01*
X127150000Y-43678571D01*
X127173809Y-43702380D01*
X127221428Y-43726190D01*
X127269047Y-43726190D01*
X127316666Y-43702380D01*
X127340476Y-43678571D01*
X127364285Y-43630952D01*
X127388095Y-43535714D01*
X127388095Y-43416666D01*
X127364285Y-43321428D01*
X127340476Y-43273809D01*
X127316666Y-43250000D01*
X127269047Y-43226190D01*
X126864285Y-43726190D02*
X126769047Y-43726190D01*
X126721428Y-43702380D01*
X126697619Y-43678571D01*
X126650000Y-43607142D01*
X126626190Y-43511904D01*
X126626190Y-43321428D01*
X126650000Y-43273809D01*
X126673809Y-43250000D01*
X126721428Y-43226190D01*
X126816666Y-43226190D01*
X126864285Y-43250000D01*
X126888095Y-43273809D01*
X126911904Y-43321428D01*
X126911904Y-43440476D01*
X126888095Y-43488095D01*
X126864285Y-43511904D01*
X126816666Y-43535714D01*
X126721428Y-43535714D01*
X126673809Y-43511904D01*
X126650000Y-43488095D01*
X126626190Y-43440476D01*
X126411904Y-43535714D02*
X126030952Y-43535714D01*
X125816666Y-43273809D02*
X125792857Y-43250000D01*
X125745238Y-43226190D01*
X125626190Y-43226190D01*
X125578571Y-43250000D01*
X125554761Y-43273809D01*
X125530952Y-43321428D01*
X125530952Y-43369047D01*
X125554761Y-43440476D01*
X125840476Y-43726190D01*
X125530952Y-43726190D01*
X125054761Y-43726190D02*
X125340476Y-43726190D01*
X125197619Y-43726190D02*
X125197619Y-43226190D01*
X125245238Y-43297619D01*
X125292857Y-43345238D01*
X125340476Y-43369047D01*
M02*
