M48
; DRILL file {KiCad (5.1.4)-1} date 9/21/2019 11:03:59 PM
; FORMAT={-:-/ absolute / inch / decimal}
; #@! TF.CreationDate,2019-09-21T23:03:59-04:00
; #@! TF.GenerationSoftware,Kicad,Pcbnew,(5.1.4)-1
FMAT,2
INCH
T1C0.0157
T2C0.0394
%
G90
G05
T1
X5.0197Y-2.0118
X5.1083Y-3.7382
X5.2254Y-3.7382
X5.3445Y-3.7303
X5.4626Y-3.7303
X5.5807Y-3.7303
X5.6988Y-3.7303
X5.8169Y-3.7303
X5.876Y-3.7894
X5.998Y-3.7352
X6.1122Y-3.7402
X6.2303Y-3.7402
X6.3484Y-3.7402
X6.4665Y-3.7402
X6.5846Y-3.7402
X6.7028Y-3.7402
T2
X5.1555Y-1.811
X5.1555Y-1.911
X5.2555Y-1.811
X5.2555Y-1.911
X5.3555Y-1.811
X5.3555Y-1.911
X5.4555Y-1.811
X5.4555Y-1.911
X5.5555Y-1.811
X5.5555Y-1.911
X5.6555Y-1.811
X5.6555Y-1.911
X5.7555Y-1.811
X5.7555Y-1.911
X5.8555Y-1.811
X5.8555Y-1.911
X5.9555Y-1.811
X5.9555Y-1.911
X6.0555Y-1.811
X6.0555Y-1.911
X6.1555Y-1.811
X6.1555Y-1.911
X6.2555Y-1.811
X6.2555Y-1.911
X6.3555Y-1.811
X6.3555Y-1.911
X6.4555Y-1.811
X6.4555Y-1.911
X6.5555Y-1.811
X6.5555Y-1.911
X6.6555Y-1.811
X6.6555Y-1.911
T0
M30
